<svg width="63" height="62" viewBox="0 0 63 62" fill="none" xmlns="http://www.w3.org/2000/svg">
<path d="M57.7188 0.375H5.20508C2.79883 0.375 0.84375 2.35742 0.84375 4.79102V57.209C0.84375 59.6426 2.79883 61.625 5.20508 61.625H57.7188C60.125 61.625 62.0938 59.6426 62.0938 57.209V4.79102C62.0938 2.35742 60.125 0.375 57.7188 0.375ZM19.3555 52.875H10.2773V23.6445H19.3691V52.875H19.3555ZM14.8164 19.6523C11.9043 19.6523 9.55274 17.2871 9.55274 14.3887C9.55274 11.4902 11.9043 9.125 14.8164 9.125C17.7148 9.125 20.0801 11.4902 20.0801 14.3887C20.0801 17.3008 17.7285 19.6523 14.8164 19.6523V19.6523ZM53.3848 52.875H44.3066V38.6563C44.3066 35.2656 44.2383 30.9043 39.5898 30.9043C34.8594 30.9043 34.1348 34.5957 34.1348 38.4102V52.875H25.0566V23.6445H33.7656V27.6367H33.8887C35.1055 25.3398 38.0723 22.9199 42.4883 22.9199C51.6758 22.9199 53.3848 28.9766 53.3848 36.8516V52.875V52.875Z" fill="white"/>
</svg>
