<svg width="71" height="58" viewBox="0 0 71 58" fill="none" xmlns="http://www.w3.org/2000/svg">
<path d="M63.6482 14.7424C63.6927 15.3642 63.6927 15.9862 63.6927 16.608C63.6927 35.5736 49.2575 57.4264 22.8742 57.4264C14.746 57.4264 7.19529 55.0723 0.84375 50.9862C1.99861 51.1193 3.10891 51.1638 4.3082 51.1638C11.0149 51.1638 17.1889 48.8986 22.1191 45.0344C15.812 44.9011 10.5264 40.7704 8.70535 35.0851C9.59375 35.2183 10.482 35.3071 11.4148 35.3071C12.7029 35.3071 13.991 35.1294 15.1902 34.8186C8.61662 33.486 3.68627 27.712 3.68627 20.7387V20.5611C5.59609 21.627 7.81709 22.2933 10.171 22.382C6.30676 19.8058 3.77514 15.4087 3.77514 10.434C3.77514 7.7691 4.48566 5.32621 5.72939 3.19422C12.7916 11.8998 23.4071 17.585 35.3105 18.2069C35.0885 17.1409 34.9552 16.0306 34.9552 14.9202C34.9552 7.014 41.3512 0.57373 49.3017 0.57373C53.4323 0.57373 57.1633 2.30596 59.7839 5.10418C63.0262 4.48238 66.1353 3.28309 68.8892 1.63973C67.8231 4.97102 65.5579 7.76924 62.5821 9.54576C65.4692 9.235 68.2674 8.43533 70.8435 7.32504C68.8895 10.1676 66.4465 12.6992 63.6482 14.7424V14.7424Z" fill="white"/>
</svg>
