<svg width="81" height="62" viewBox="0 0 81 62" fill="none" xmlns="http://www.w3.org/2000/svg">
<path d="M68.6195 5.54797C68.5971 5.50468 68.5601 5.47075 68.515 5.45227C63.3029 3.06087 57.8025 1.35562 52.1517 0.379183C52.1004 0.369638 52.0473 0.376524 52.0001 0.39886C51.9529 0.421196 51.914 0.457846 51.8888 0.503597C51.1398 1.86298 50.4599 3.25928 49.8517 4.68719C43.7604 3.76254 37.5644 3.76254 31.4731 4.68719C30.8609 3.25566 30.1701 1.859 29.4039 0.503597C29.3776 0.45884 29.3385 0.423034 29.2915 0.400843C29.2446 0.378652 29.1921 0.371104 29.1408 0.379183C23.4894 1.35357 17.9887 3.05895 12.7772 5.45241C12.7326 5.47132 12.695 5.50361 12.6695 5.54483C2.24757 21.1086 -0.607387 36.2897 0.79316 51.2829C0.7971 51.3196 0.80839 51.3552 0.826357 51.3875C0.844325 51.4198 0.868604 51.4481 0.89775 51.4708C6.96635 55.9642 13.7541 59.394 20.9715 61.6139C21.0223 61.6291 21.0766 61.6284 21.127 61.6119C21.1774 61.5954 21.2216 61.5638 21.2535 61.5214C22.8037 59.4123 24.1772 57.1788 25.3602 54.8438C25.3764 54.8118 25.3857 54.7767 25.3874 54.7408C25.3891 54.7049 25.3831 54.669 25.37 54.6356C25.3568 54.6022 25.3367 54.5719 25.311 54.5468C25.2853 54.5217 25.2546 54.5024 25.2208 54.49C23.0549 53.6613 20.958 52.6622 18.9498 51.5023C18.9133 51.4808 18.8827 51.4507 18.8606 51.4147C18.8385 51.3786 18.8257 51.3376 18.8232 51.2953C18.8207 51.2531 18.8286 51.2109 18.8463 51.1724C18.864 51.134 18.8908 51.1005 18.9245 51.0749C19.3459 50.7592 19.7675 50.4308 20.1699 50.0991C20.2056 50.0697 20.2489 50.0508 20.2948 50.0446C20.3407 50.0385 20.3874 50.0452 20.4297 50.0641C33.586 56.0684 47.8295 56.0684 60.8301 50.0641C60.8724 50.044 60.9196 50.0363 60.9662 50.0419C61.0128 50.0476 61.0568 50.0663 61.0931 50.096C61.4956 50.4277 61.9171 50.7592 62.3416 51.0749C62.3755 51.1002 62.4026 51.1335 62.4206 51.1718C62.4385 51.2101 62.4468 51.2523 62.4446 51.2945C62.4424 51.3368 62.4298 51.3778 62.408 51.414C62.3862 51.4503 62.3558 51.4806 62.3195 51.5023C60.3159 52.672 58.2171 53.6704 56.0454 54.4869C56.0117 54.4997 55.9811 54.5195 55.9555 54.545C55.93 54.5705 55.9101 54.6011 55.8972 54.6348C55.8843 54.6685 55.8787 54.7045 55.8807 54.7405C55.8826 54.7765 55.8922 54.8118 55.9087 54.8438C57.1115 57.1658 58.483 59.3965 60.0122 61.5178C60.0432 61.5613 60.0872 61.5939 60.1378 61.6111C60.1884 61.6283 60.2431 61.6291 60.2943 61.6135C67.5245 59.4011 74.3242 55.971 80.4004 51.4708C80.43 51.4492 80.4546 51.4216 80.4726 51.3897C80.4907 51.3578 80.5017 51.3225 80.505 51.286C82.1817 33.9524 77.6979 18.8957 68.6195 5.54797ZM27.3249 42.1536C23.3639 42.1536 20.1002 38.5187 20.1002 34.0545C20.1002 29.5904 23.3006 25.9552 27.3249 25.9552C31.3807 25.9552 34.6129 29.622 34.5496 34.0542C34.5496 38.5187 31.349 42.1536 27.3249 42.1536ZM54.037 42.1536C50.0762 42.1536 46.8124 38.5187 46.8124 34.0545C46.8124 29.5904 50.0129 25.9552 54.037 25.9552C58.0931 25.9552 61.3251 29.622 61.2618 34.0542C61.2618 38.5187 58.0931 42.1536 54.037 42.1536Z" fill="white"/>
</svg>
