<svg width="68" height="67" viewBox="0 0 68 67" fill="none" xmlns="http://www.w3.org/2000/svg">
<path d="M22.7754 53.332C22.7754 53.6055 22.4609 53.8242 22.0645 53.8242C21.6133 53.8652 21.2988 53.6465 21.2988 53.332C21.2988 53.0586 21.6133 52.8398 22.0098 52.8398C22.4199 52.7988 22.7754 53.0176 22.7754 53.332ZM18.5234 52.7168C18.4277 52.9902 18.7012 53.3047 19.1113 53.3867C19.4668 53.5234 19.877 53.3867 19.959 53.1133C20.041 52.8398 19.7812 52.5254 19.3711 52.4023C19.0156 52.3066 18.6191 52.4434 18.5234 52.7168ZM24.5664 52.4844C24.1699 52.5801 23.8965 52.8398 23.9375 53.1543C23.9785 53.4277 24.334 53.6055 24.7441 53.5098C25.1406 53.4141 25.4141 53.1543 25.373 52.8809C25.332 52.6211 24.9629 52.4434 24.5664 52.4844ZM33.5625 0.09375C14.5996 0.09375 0.09375 14.4902 0.09375 33.4531C0.09375 48.6152 9.63672 61.5898 23.2676 66.1563C25.0176 66.4707 25.6328 65.3906 25.6328 64.502C25.6328 63.6543 25.5918 58.9785 25.5918 56.1074C25.5918 56.1074 16.0215 58.1582 14.0117 52.0332C14.0117 52.0332 12.4531 48.0547 10.2109 47.0293C10.2109 47.0293 7.08008 44.8828 10.4297 44.9238C10.4297 44.9238 13.834 45.1973 15.707 48.4512C18.7012 53.7285 23.7188 52.2109 25.6738 51.3086C25.9883 49.1211 26.877 47.6035 27.8613 46.7012C20.2188 45.8535 12.5078 44.7461 12.5078 31.5937C12.5078 27.834 13.5469 25.9473 15.7344 23.541C15.3789 22.6523 14.2168 18.9883 16.0898 14.2578C18.9473 13.3691 25.5234 17.9492 25.5234 17.9492C28.2578 17.1836 31.1973 16.7871 34.1094 16.7871C37.0215 16.7871 39.9609 17.1836 42.6953 17.9492C42.6953 17.9492 49.2715 13.3555 52.1289 14.2578C54.002 19.002 52.8398 22.6523 52.4844 23.541C54.6719 25.9609 56.0117 27.8477 56.0117 31.5937C56.0117 44.7871 47.959 45.8398 40.3164 46.7012C41.5742 47.7812 42.6406 49.832 42.6406 53.0449C42.6406 57.6523 42.5996 63.3535 42.5996 64.4746C42.5996 65.3633 43.2285 66.4434 44.9648 66.1289C58.6367 61.5898 67.9062 48.6152 67.9062 33.4531C67.9062 14.4902 52.5254 0.09375 33.5625 0.09375ZM13.3828 47.248C13.2051 47.3848 13.2461 47.6992 13.4785 47.959C13.6973 48.1777 14.0117 48.2734 14.1895 48.0957C14.3672 47.959 14.3262 47.6445 14.0938 47.3848C13.875 47.166 13.5605 47.0703 13.3828 47.248ZM11.9063 46.1406C11.8105 46.3184 11.9473 46.5371 12.2207 46.6738C12.4395 46.8105 12.7129 46.7695 12.8086 46.5781C12.9043 46.4004 12.7676 46.1816 12.4941 46.0449C12.2207 45.9629 12.002 46.0039 11.9063 46.1406ZM16.3359 51.0078C16.1172 51.1855 16.1992 51.5957 16.5137 51.8555C16.8281 52.1699 17.2246 52.2109 17.4023 51.9922C17.5801 51.8145 17.498 51.4043 17.2246 51.1445C16.9238 50.8301 16.5137 50.7891 16.3359 51.0078ZM14.7773 48.998C14.5586 49.1348 14.5586 49.4902 14.7773 49.8047C14.9961 50.1191 15.3652 50.2559 15.543 50.1191C15.7617 49.9414 15.7617 49.5859 15.543 49.2715C15.3516 48.957 14.9961 48.8203 14.7773 48.998Z" fill="white"/>
</svg>
