<svg width="62" height="62" viewBox="0 0 62 62" fill="none" xmlns="http://www.w3.org/2000/svg">
<path d="M31.2324 15.2773C22.5371 15.2773 15.5234 22.291 15.5234 30.9863C15.5234 39.6816 22.5371 46.6953 31.2324 46.6953C39.9277 46.6953 46.9414 39.6816 46.9414 30.9863C46.9414 22.291 39.9277 15.2773 31.2324 15.2773ZM31.2324 41.1992C25.6133 41.1992 21.0195 36.6191 21.0195 30.9863C21.0195 25.3535 25.5996 20.7734 31.2324 20.7734C36.8652 20.7734 41.4453 25.3535 41.4453 30.9863C41.4453 36.6191 36.8516 41.1992 31.2324 41.1992V41.1992ZM51.2481 14.6348C51.2481 16.6719 49.6074 18.2988 47.584 18.2988C45.5469 18.2988 43.9199 16.6582 43.9199 14.6348C43.9199 12.6113 45.5606 10.9707 47.584 10.9707C49.6074 10.9707 51.2481 12.6113 51.2481 14.6348ZM61.6524 18.3535C61.4199 13.4453 60.2988 9.09766 56.7031 5.51562C53.1211 1.93359 48.7734 0.8125 43.8652 0.566406C38.8066 0.279297 23.6445 0.279297 18.5859 0.566406C13.6914 0.798828 9.34375 1.91992 5.74805 5.50195C2.15234 9.08398 1.04492 13.4316 0.798828 18.3398C0.511719 23.3984 0.511719 38.5605 0.798828 43.6191C1.03125 48.5273 2.15234 52.875 5.74805 56.457C9.34375 60.0391 13.6777 61.1602 18.5859 61.4062C23.6445 61.6934 38.8066 61.6934 43.8652 61.4062C48.7734 61.1738 53.1211 60.0527 56.7031 56.457C60.2852 52.875 61.4063 48.5273 61.6524 43.6191C61.9395 38.5605 61.9395 23.4121 61.6524 18.3535V18.3535ZM55.1172 49.0469C54.0508 51.7266 51.9863 53.791 49.293 54.8711C45.2598 56.4707 35.6895 56.1016 31.2324 56.1016C26.7754 56.1016 17.1914 56.457 13.1719 54.8711C10.4922 53.8047 8.42774 51.7402 7.34766 49.0469C5.74805 45.0137 6.11719 35.4434 6.11719 30.9863C6.11719 26.5293 5.76172 16.9453 7.34766 12.9258C8.41406 10.2461 10.4785 8.18164 13.1719 7.10156C17.2051 5.50195 26.7754 5.87109 31.2324 5.87109C35.6895 5.87109 45.2734 5.51562 49.293 7.10156C51.9727 8.16797 54.0371 10.2324 55.1172 12.9258C56.7168 16.959 56.3477 26.5293 56.3477 30.9863C56.3477 35.4434 56.7168 45.0273 55.1172 49.0469Z" fill="white"/>
</svg>
